<?xml version="1.0" standalone="no"?>
<!DOCTYPE svg PUBLIC "-//W3C//DTD SVG 20010904//EN"
 "http://www.w3.org/TR/2001/REC-SVG-20010904/DTD/svg10.dtd">
<svg version="1.0" xmlns="http://www.w3.org/2000/svg"
 width="300.000000pt" height="300.000000pt" viewBox="0 0 300.000000 300.000000"
 preserveAspectRatio="xMidYMid meet">
<metadata>
Created by potrace 1.11, written by Peter Selinger 2001-2013
</metadata>
<g transform="translate(0.000000,300.000000) scale(0.100000,-0.100000)"
fill="#000000" stroke="none">
<path d="M0 1500 l0 -1500 1500 0 1500 0 0 1500 0 1500 -1500 0 -1500 0 0
-1500z m2850 0 l0 -1350 -1350 0 -1350 0 0 1350 0 1350 1350 0 1350 0 0 -1350z"/>
<path d="M655 2215 c-173 -37 -274 -128 -312 -279 -32 -130 6 -265 98 -351 59
-55 130 -91 296 -148 215 -75 279 -115 309 -192 23 -60 15 -142 -17 -190 -14
-21 -45 -46 -77 -62 -46 -22 -62 -25 -125 -21 -128 8 -213 76 -241 191 l-6 27
-122 0 -121 0 6 -40 c16 -118 116 -245 240 -304 90 -43 154 -56 267 -56 165 0
272 41 360 137 66 73 92 143 92 253 0 118 -27 187 -101 261 -64 64 -124 94
-321 164 -169 59 -219 84 -258 129 -35 40 -47 85 -40 157 6 61 30 96 89 129
59 34 173 35 236 2 51 -26 96 -80 112 -133 l12 -39 121 0 121 0 -6 45 c-9 64
-43 129 -100 191 -108 118 -319 171 -512 129z"/>
<path d="M1436 2173 c8 -21 122 -337 253 -703 l239 -665 148 0 148 0 253 700
c139 385 253 701 253 703 0 1 -56 2 -123 2 l-124 0 -198 -567 c-109 -313 -201
-574 -204 -581 -4 -7 -97 247 -208 565 l-200 578 -126 3 -126 3 15 -38z"/>
</g>
</svg>
